<svg xmlns="http://www.w3.org/2000/svg" xmlns:xlink="http://www.w3.org/1999/xlink" width="192" zoomAndPan="magnify" viewBox="0 0 144 143.999998" height="192" preserveAspectRatio="xMidYMid meet" version="1.0"><defs><clipPath id="9f6276f118"><path d="M 33.339844 33.339844 L 110.589844 33.339844 L 110.589844 110.589844 L 33.339844 110.589844 Z M 33.339844 33.339844 " clip-rule="nonzero"/></clipPath><clipPath id="a32295fd03"><path d="M 51.339844 52.324219 L 92.589844 52.324219 L 92.589844 91.324219 L 51.339844 91.324219 Z M 51.339844 52.324219 " clip-rule="nonzero"/></clipPath></defs><g clip-path="url(#9f6276f118)"><path fill="#5e6364" d="M 101.898438 110.660156 L 42.09375 110.660156 C 41.519531 110.65625 40.949219 110.601562 40.386719 110.488281 C 39.824219 110.375 39.273438 110.210938 38.746094 109.988281 C 38.214844 109.769531 37.710938 109.5 37.230469 109.179688 C 36.753906 108.859375 36.3125 108.496094 35.90625 108.089844 C 35.5 107.683594 35.136719 107.242188 34.816406 106.761719 C 34.496094 106.285156 34.226562 105.78125 34.007812 105.25 C 33.785156 104.71875 33.621094 104.171875 33.507812 103.605469 C 33.394531 103.042969 33.339844 102.472656 33.339844 101.898438 L 33.339844 42.09375 C 33.339844 41.519531 33.394531 40.949219 33.507812 40.386719 C 33.621094 39.824219 33.789062 39.277344 34.007812 38.746094 C 34.226562 38.214844 34.5 37.710938 34.816406 37.234375 C 35.136719 36.753906 35.5 36.3125 35.90625 35.90625 C 36.3125 35.5 36.753906 35.136719 37.234375 34.816406 C 37.710938 34.5 38.214844 34.226562 38.746094 34.007812 C 39.277344 33.789062 39.824219 33.621094 40.386719 33.507812 C 40.949219 33.394531 41.519531 33.339844 42.09375 33.339844 L 101.898438 33.339844 C 102.472656 33.339844 103.042969 33.394531 103.605469 33.507812 C 104.171875 33.621094 104.71875 33.785156 105.25 34.007812 C 105.78125 34.226562 106.285156 34.496094 106.761719 34.816406 C 107.242188 35.136719 107.683594 35.5 108.089844 35.90625 C 108.496094 36.3125 108.859375 36.753906 109.179688 37.230469 C 109.5 37.710938 109.769531 38.214844 109.988281 38.746094 C 110.210938 39.273438 110.375 39.824219 110.488281 40.386719 C 110.601562 40.949219 110.65625 41.519531 110.660156 42.09375 L 110.660156 101.898438 C 110.660156 102.472656 110.601562 103.042969 110.488281 103.609375 C 110.375 104.171875 110.210938 104.71875 109.988281 105.25 C 109.769531 105.78125 109.5 106.285156 109.179688 106.765625 C 108.859375 107.242188 108.496094 107.683594 108.089844 108.089844 C 107.683594 108.496094 107.242188 108.859375 106.765625 109.179688 C 106.285156 109.5 105.78125 109.769531 105.25 109.988281 C 104.71875 110.210938 104.171875 110.375 103.609375 110.488281 C 103.042969 110.601562 102.472656 110.660156 101.898438 110.660156 Z M 42.09375 35.449219 C 41.65625 35.453125 41.226562 35.496094 40.800781 35.582031 C 40.371094 35.667969 39.957031 35.792969 39.554688 35.960938 C 39.152344 36.128906 38.769531 36.332031 38.40625 36.574219 C 38.042969 36.816406 37.707031 37.09375 37.398438 37.398438 C 37.09375 37.707031 36.816406 38.042969 36.574219 38.40625 C 36.332031 38.769531 36.128906 39.152344 35.960938 39.554688 C 35.792969 39.957031 35.667969 40.371094 35.582031 40.800781 C 35.496094 41.226562 35.453125 41.65625 35.449219 42.09375 L 35.449219 101.898438 C 35.453125 102.335938 35.496094 102.765625 35.578125 103.195312 C 35.664062 103.621094 35.792969 104.039062 35.957031 104.441406 C 36.125 104.84375 36.332031 105.226562 36.574219 105.589844 C 36.816406 105.953125 37.089844 106.289062 37.398438 106.59375 C 37.707031 106.902344 38.042969 107.179688 38.40625 107.421875 C 38.765625 107.664062 39.148438 107.871094 39.554688 108.035156 C 39.957031 108.203125 40.371094 108.332031 40.796875 108.417969 C 41.226562 108.503906 41.65625 108.546875 42.09375 108.546875 L 101.898438 108.546875 C 102.335938 108.546875 102.765625 108.503906 103.195312 108.417969 C 103.625 108.332031 104.039062 108.207031 104.441406 108.039062 C 104.84375 107.871094 105.226562 107.667969 105.589844 107.421875 C 105.953125 107.179688 106.289062 106.90625 106.597656 106.597656 C 106.90625 106.289062 107.179688 105.953125 107.421875 105.589844 C 107.667969 105.226562 107.871094 104.84375 108.039062 104.441406 C 108.207031 104.039062 108.332031 103.625 108.417969 103.195312 C 108.503906 102.765625 108.546875 102.335938 108.546875 101.898438 L 108.546875 42.09375 C 108.546875 41.65625 108.503906 41.226562 108.417969 40.796875 C 108.332031 40.371094 108.203125 39.957031 108.035156 39.554688 C 107.871094 39.148438 107.664062 38.765625 107.421875 38.40625 C 107.179688 38.042969 106.902344 37.707031 106.59375 37.398438 C 106.289062 37.089844 105.953125 36.816406 105.589844 36.574219 C 105.226562 36.332031 104.84375 36.125 104.441406 35.957031 C 104.039062 35.792969 103.621094 35.664062 103.195312 35.578125 C 102.765625 35.496094 102.335938 35.453125 101.898438 35.449219 Z M 42.09375 35.449219 " fill-opacity="1" fill-rule="nonzero"/></g><g clip-path="url(#a32295fd03)"><path fill="#5e6364" d="M 61.328125 91.46875 C 60.671875 91.46875 60.023438 91.265625 59.46875 90.859375 C 58.484375 90.148438 58 88.960938 58.207031 87.761719 L 59.851562 78.167969 C 59.921875 77.769531 59.789062 77.367188 59.5 77.085938 L 52.53125 70.289062 C 51.660156 69.441406 51.351562 68.199219 51.726562 67.042969 C 52.105469 65.886719 53.085938 65.058594 54.285156 64.886719 L 63.917969 63.484375 C 64.316406 63.425781 64.664062 63.175781 64.839844 62.816406 L 69.148438 54.085938 C 69.6875 52.996094 70.773438 52.320312 71.992188 52.320312 C 73.207031 52.320312 74.292969 52.996094 74.832031 54.085938 L 79.140625 62.816406 C 79.316406 63.175781 79.664062 63.425781 80.0625 63.484375 L 89.695312 64.886719 C 90.898438 65.058594 91.875 65.886719 92.253906 67.042969 C 92.628906 68.199219 92.320312 69.441406 91.449219 70.289062 L 84.480469 77.085938 C 84.191406 77.367188 84.058594 77.769531 84.128906 78.167969 L 85.773438 87.761719 C 85.980469 88.960938 85.496094 90.148438 84.511719 90.863281 C 83.53125 91.574219 82.25 91.667969 81.175781 91.101562 L 72.558594 86.574219 C 72.203125 86.386719 71.777344 86.386719 71.421875 86.574219 L 62.804688 91.101562 C 62.335938 91.347656 61.832031 91.46875 61.328125 91.46875 Z M 71.992188 54.265625 C 71.515625 54.265625 71.101562 54.519531 70.890625 54.949219 L 66.585938 63.675781 C 66.121094 64.613281 65.230469 65.257812 64.199219 65.410156 L 54.566406 66.808594 C 54.09375 66.878906 53.726562 67.1875 53.578125 67.644531 C 53.429688 68.097656 53.546875 68.566406 53.886719 68.898438 L 60.859375 75.691406 C 61.605469 76.421875 61.945312 77.46875 61.769531 78.496094 L 60.125 88.089844 C 60.042969 88.558594 60.226562 89.007812 60.609375 89.289062 C 60.996094 89.566406 61.480469 89.601562 61.902344 89.382812 L 70.515625 84.851562 C 71.4375 84.367188 72.542969 84.367188 73.464844 84.851562 L 82.082031 89.382812 C 82.503906 89.601562 82.984375 89.566406 83.371094 89.289062 C 83.753906 89.007812 83.9375 88.558594 83.855469 88.089844 L 82.210938 78.496094 C 82.035156 77.46875 82.375 76.421875 83.125 75.691406 L 90.09375 68.898438 C 90.433594 68.566406 90.550781 68.097656 90.402344 67.644531 C 90.257812 67.1875 89.886719 66.878906 89.414062 66.808594 L 79.78125 65.410156 C 78.75 65.257812 77.859375 64.613281 77.394531 63.675781 L 73.089844 54.949219 C 72.878906 54.519531 72.46875 54.265625 71.992188 54.265625 Z M 71.992188 54.265625 " fill-opacity="1" fill-rule="nonzero"/></g></svg>